<?xml version="1.0" standalone="no"?>
<!DOCTYPE svg PUBLIC "-//W3C//DTD SVG 20010904//EN"
 "http://www.w3.org/TR/2001/REC-SVG-20010904/DTD/svg10.dtd">
<svg version="1.0" xmlns="http://www.w3.org/2000/svg"
 width="434.000000pt" height="110.000000pt" viewBox="0 0 434.000000 110.000000"
 preserveAspectRatio="xMidYMid meet">

<g transform="translate(0.000000,110.000000) scale(0.100000,-0.100000)"
fill="#000000" stroke="none">
<path d="M350 980 l0 -30 -70 0 -70 0 0 -34 c0 -32 -3 -35 -32 -38 -30 -3 -33
-6 -33 -38 0 -32 2 -35 30 -35 27 0 31 4 35 35 l5 35 74 3 c68 3 73 4 68 23
-14 52 -130 49 1789 49 l1784 0 0 -38 0 -38 68 0 67 0 3 -37 c3 -35 5 -37 38
-37 l34 0 0 -70 0 -70 35 0 35 0 0 -105 0 -105 -35 0 -35 0 0 -69 0 -70 -32
-3 c-29 -3 -33 -7 -36 -35 l-3 -33 -70 0 -69 0 0 -40 0 -40 -1785 0 -1785 0 0
35 0 35 -75 0 -75 0 0 35 c0 33 -2 35 -35 35 l-35 0 0 75 0 75 -35 0 -35 0 0
105 0 105 35 0 35 0 0 70 0 70 -35 0 -35 0 0 -70 0 -70 -35 0 -35 0 0 -105 0
-105 35 0 35 0 0 -75 0 -75 35 0 c33 0 35 -2 35 -35 0 -33 2 -35 35 -35 33 0
35 -2 35 -35 l0 -35 70 0 70 0 0 -35 0 -35 1790 0 1790 0 0 35 0 35 70 0 70 0
0 35 c0 33 2 35 35 35 33 0 35 2 35 34 0 33 2 35 38 38 l37 3 3 73 3 72 29 0
30 0 0 105 0 105 -30 0 -30 0 0 69 0 70 -37 3 c-36 3 -38 5 -41 41 -3 35 -5
37 -38 37 -32 0 -34 2 -34 35 l0 35 -70 0 -70 0 0 30 0 30 -1790 0 -1790 0 0
-30z"/>
</g>
</svg>
