<?xml version="1.0" encoding="UTF-8"?>
<!DOCTYPE svg PUBLIC "-//W3C//DTD SVG 1.1//EN" "http://www.w3.org/Graphics/SVG/1.1/DTD/svg11.dtd">
<svg xmlns="http://www.w3.org/2000/svg" version="1.1" width="434px" height="110px" style="shape-rendering:geometricPrecision; text-rendering:geometricPrecision; image-rendering:optimizeQuality; fill-rule:evenodd; clip-rule:evenodd" xmlns:xlink="http://www.w3.org/1999/xlink">
<g><path style="opacity:0.68" fill="#535355" d="M 392.5,8.5 C 273.5,8.5 154.5,8.5 35.5,8.5C 35.5,10.5 35.5,12.5 35.5,14.5C 35.5,14.8333 35.5,15.1667 35.5,15.5C 35.5,17.5 35.5,19.5 35.5,21.5C 35.1667,21.5 34.8333,21.5 34.5,21.5C 34.5,19.1667 34.5,16.8333 34.5,14.5C 34.5,12.1667 34.5,9.83333 34.5,7.5C 154.001,7.16714 273.334,7.50047 392.5,8.5 Z"/></g>
<g><path style="opacity:1" fill="#010000" d="M 392.5,8.5 C 392.5,10.5 392.5,12.5 392.5,14.5C 273.5,14.5 154.5,14.5 35.5,14.5C 35.5,12.5 35.5,10.5 35.5,8.5C 154.5,8.5 273.5,8.5 392.5,8.5 Z"/></g>
<g><path style="opacity:0.38" fill="#adaba3" d="M 35.5,15.5 C 35.5,15.1667 35.5,14.8333 35.5,14.5C 154.5,14.5 273.5,14.5 392.5,14.5C 392.5,16.8333 392.5,19.1667 392.5,21.5C 392.167,21.5 391.833,21.5 391.5,21.5C 391.5,19.5 391.5,17.5 391.5,15.5C 272.833,15.5 154.167,15.5 35.5,15.5 Z"/></g>
<g><path style="opacity:1" fill="#040303" d="M 34.5,14.5 C 34.5,16.8333 34.5,19.1667 34.5,21.5C 29.8333,21.5 25.1667,21.5 20.5,21.5C 20.5,19.1667 20.5,16.8333 20.5,14.5C 25.1667,14.5 29.8333,14.5 34.5,14.5 Z"/></g>
<g><path style="opacity:1" fill="#141313" d="M 392.5,8.5 C 393.461,10.2646 393.795,12.2646 393.5,14.5C 397.833,14.5 402.167,14.5 406.5,14.5C 406.5,16.8333 406.5,19.1667 406.5,21.5C 401.833,21.5 397.167,21.5 392.5,21.5C 392.5,19.1667 392.5,16.8333 392.5,14.5C 392.5,12.5 392.5,10.5 392.5,8.5 Z"/></g>
<g><path style="opacity:0.782" fill="#f8d651" d="M 34.5,21.5 C 34.8333,21.5 35.1667,21.5 35.5,21.5C 154.167,21.5 272.833,21.5 391.5,21.5C 391.833,21.5 392.167,21.5 392.5,21.5C 392.5,21.8333 392.5,22.1667 392.5,22.5C 273.5,22.5 154.5,22.5 35.5,22.5C 35.7947,24.7354 35.4614,26.7354 34.5,28.5C 34.5,26.5 34.5,24.5 34.5,22.5C 34.5,22.1667 34.5,21.8333 34.5,21.5 Z"/></g>
<g><path style="opacity:1" fill="#614f25" d="M 406.5,14.5 C 407.468,16.6074 407.802,18.9407 407.5,21.5C 407.5,23.8333 407.5,26.1667 407.5,28.5C 409.5,28.5 411.5,28.5 413.5,28.5C 413.5,26.1667 413.5,23.8333 413.5,21.5C 414.468,23.6074 414.802,25.9407 414.5,28.5C 414.5,33.5 414.5,38.5 414.5,43.5C 414.167,43.5 413.833,43.5 413.5,43.5C 413.5,38.8333 413.5,34.1667 413.5,29.5C 411.167,29.5 408.833,29.5 406.5,29.5C 406.5,29.1667 406.5,28.8333 406.5,28.5C 406.5,26.1667 406.5,23.8333 406.5,21.5C 406.5,19.1667 406.5,16.8333 406.5,14.5 Z"/></g>
<g><path style="opacity:1" fill="#080606" d="M 407.5,21.5 C 409.5,21.5 411.5,21.5 413.5,21.5C 413.5,23.8333 413.5,26.1667 413.5,28.5C 411.5,28.5 409.5,28.5 407.5,28.5C 407.5,26.1667 407.5,23.8333 407.5,21.5 Z"/></g>
<g><path style="opacity:1" fill="#fec701" d="M 392.5,22.5 C 392.5,24.5 392.5,26.5 392.5,28.5C 397.167,28.5 401.833,28.5 406.5,28.5C 406.5,28.8333 406.5,29.1667 406.5,29.5C 406.5,34.1667 406.5,38.8333 406.5,43.5C 408.833,43.5 411.167,43.5 413.5,43.5C 413.5,50.5 413.5,57.5 413.5,64.5C 411.167,64.5 408.833,64.5 406.5,64.5C 406.5,69.5 406.5,74.5 406.5,79.5C 401.833,79.5 397.167,79.5 392.5,79.5C 392.5,81.5 392.5,83.5 392.5,85.5C 273.833,85.5 155.167,85.5 36.5,85.5C 36.9465,82.9899 36.2798,80.9899 34.5,79.5C 30.1667,79.5 25.8333,79.5 21.5,79.5C 21.1667,79.5 20.8333,79.5 20.5,79.5C 20.1667,79.5 19.8333,79.5 19.5,79.5C 19.5,79.1667 19.5,78.8333 19.5,78.5C 20.4849,74.3656 20.8182,70.0323 20.5,65.5C 19.0821,63.6921 17.0821,63.0254 14.5,63.5C 14.5,57.1667 14.5,50.8333 14.5,44.5C 16.4147,44.7845 18.0813,44.4511 19.5,43.5C 21.275,39.6136 22.1084,35.2803 22,30.5C 26.2679,29.8599 30.4345,29.1933 34.5,28.5C 35.4614,26.7354 35.7947,24.7354 35.5,22.5C 154.5,22.5 273.5,22.5 392.5,22.5 Z"/></g>
<g><path style="opacity:1" fill="#b08b06" d="M 392.5,21.5 C 397.167,21.5 401.833,21.5 406.5,21.5C 406.5,23.8333 406.5,26.1667 406.5,28.5C 401.833,28.5 397.167,28.5 392.5,28.5C 392.5,26.5 392.5,24.5 392.5,22.5C 392.5,22.1667 392.5,21.8333 392.5,21.5 Z"/></g>
<g><path style="opacity:1" fill="#070102" d="M 13.5,22.5 C 15.8333,22.5 18.1667,22.5 20.5,22.5C 20.5,24.5 20.5,26.5 20.5,28.5C 18.1667,28.5 15.8333,28.5 13.5,28.5C 13.5,26.5 13.5,24.5 13.5,22.5 Z"/></g>
<g><path style="opacity:0.847" fill="#7c7764" d="M 13.5,22.5 C 15.6074,21.5318 17.9407,21.1984 20.5,21.5C 25.1667,21.5 29.8333,21.5 34.5,21.5C 34.5,21.8333 34.5,22.1667 34.5,22.5C 30.1667,22.5 25.8333,22.5 21.5,22.5C 21.5,24.5 21.5,26.5 21.5,28.5C 21.5,29.1667 21.1667,29.5 20.5,29.5C 18.5,29.5 16.5,29.5 14.5,29.5C 14.1667,29.5 13.8333,29.5 13.5,29.5C 11.1667,29.5 8.83333,29.5 6.5,29.5C 8.60737,28.5318 10.9407,28.1984 13.5,28.5C 15.8333,28.5 18.1667,28.5 20.5,28.5C 20.5,26.5 20.5,24.5 20.5,22.5C 18.1667,22.5 15.8333,22.5 13.5,22.5 Z"/></g>
<g><path style="opacity:1" fill="#010102" d="M 6.5,29.5 C 8.83333,29.5 11.1667,29.5 13.5,29.5C 13.5,34.1667 13.5,38.8333 13.5,43.5C 11.1667,43.5 8.83333,43.5 6.5,43.5C 6.5,38.8333 6.5,34.1667 6.5,29.5 Z"/></g>
<g><path style="opacity:1" fill="#100d0d" d="M 414.5,28.5 C 416.833,28.5 419.167,28.5 421.5,28.5C 421.5,33.1667 421.5,37.8333 421.5,42.5C 421.5,42.8333 421.5,43.1667 421.5,43.5C 421.167,43.5 420.833,43.5 420.5,43.5C 418.5,43.5 416.5,43.5 414.5,43.5C 414.5,38.5 414.5,33.5 414.5,28.5 Z"/></g>
<g><path style="opacity:1" fill="#b18d06" d="M 406.5,29.5 C 408.833,29.5 411.167,29.5 413.5,29.5C 413.5,34.1667 413.5,38.8333 413.5,43.5C 411.167,43.5 408.833,43.5 406.5,43.5C 406.5,38.8333 406.5,34.1667 406.5,29.5 Z"/></g>
<g><path style="opacity:0.914" fill="#fae59a" d="M 21.5,28.5 C 25.8333,28.5 30.1667,28.5 34.5,28.5C 30.4345,29.1933 26.2679,29.8599 22,30.5C 22.1084,35.2803 21.275,39.6136 19.5,43.5C 17.5,43.5 15.5,43.5 13.5,43.5C 13.5,38.8333 13.5,34.1667 13.5,29.5C 13.8333,29.5 14.1667,29.5 14.5,29.5C 14.5,33.8333 14.5,38.1667 14.5,42.5C 16.5,42.5 18.5,42.5 20.5,42.5C 20.5,38.1667 20.5,33.8333 20.5,29.5C 21.1667,29.5 21.5,29.1667 21.5,28.5 Z M 14.5,29.5 C 16.5,29.5 18.5,29.5 20.5,29.5C 20.5,33.8333 20.5,38.1667 20.5,42.5C 18.5,42.5 16.5,42.5 14.5,42.5C 14.5,38.1667 14.5,33.8333 14.5,29.5 Z"/></g>
<g><path style="opacity:0.165" fill="#bcbdbc" d="M 6.5,29.5 C 6.5,34.1667 6.5,38.8333 6.5,43.5C 4.16667,43.5 1.83333,43.5 -0.5,43.5C -0.5,43.1667 -0.5,42.8333 -0.5,42.5C 1.5,42.5 3.5,42.5 5.5,42.5C 5.18178,37.9677 5.51511,33.6344 6.5,29.5 Z"/></g>
<g><path style="opacity:0.999" fill="#020101" d="M -0.5,43.5 C 1.83333,43.5 4.16667,43.5 6.5,43.5C 6.5,50.5 6.5,57.5 6.5,64.5C 4.16667,64.5 1.83333,64.5 -0.5,64.5C -0.5,57.5 -0.5,50.5 -0.5,43.5 Z"/></g>
<g><path style="opacity:1" fill="#020100" d="M 421.5,43.5 C 423.5,43.5 425.5,43.5 427.5,43.5C 427.5,50.5 427.5,57.5 427.5,64.5C 425.5,64.5 423.5,64.5 421.5,64.5C 421.5,57.5 421.5,50.5 421.5,43.5 Z"/></g>
<g><path style="opacity:1" fill="#f0cc44" d="M 13.5,43.5 C 15.5,43.5 17.5,43.5 19.5,43.5C 18.0813,44.4511 16.4147,44.7845 14.5,44.5C 14.5,50.8333 14.5,57.1667 14.5,63.5C 17.0821,63.0254 19.0821,63.6921 20.5,65.5C 18.5,65.5 16.5,65.5 14.5,65.5C 14.1667,65.5 13.8333,65.5 13.5,65.5C 13.5,65.1667 13.5,64.8333 13.5,64.5C 13.5,57.5 13.5,50.5 13.5,43.5 Z"/></g>
<g><path style="opacity:1" fill="#b48f09" d="M 413.5,43.5 C 413.833,43.5 414.167,43.5 414.5,43.5C 416.5,43.5 418.5,43.5 420.5,43.5C 420.5,50.5 420.5,57.5 420.5,64.5C 418.167,64.5 415.833,64.5 413.5,64.5C 413.5,57.5 413.5,50.5 413.5,43.5 Z"/></g>
<g><path style="opacity:1" fill="#554304" d="M 420.5,43.5 C 420.833,43.5 421.167,43.5 421.5,43.5C 421.5,50.5 421.5,57.5 421.5,64.5C 421.5,64.8333 421.5,65.1667 421.5,65.5C 419.167,65.5 416.833,65.5 414.5,65.5C 414.5,70.1667 414.5,74.8333 414.5,79.5C 414.167,79.5 413.833,79.5 413.5,79.5C 413.5,74.5 413.5,69.5 413.5,64.5C 415.833,64.5 418.167,64.5 420.5,64.5C 420.5,57.5 420.5,50.5 420.5,43.5 Z"/></g>
<g><path style="opacity:0.506" fill="#868686" d="M 421.5,43.5 C 421.5,43.1667 421.5,42.8333 421.5,42.5C 423.833,42.5 426.167,42.5 428.5,42.5C 428.5,50.1667 428.5,57.8333 428.5,65.5C 426.167,65.5 423.833,65.5 421.5,65.5C 421.5,65.1667 421.5,64.8333 421.5,64.5C 423.5,64.5 425.5,64.5 427.5,64.5C 427.5,57.5 427.5,50.5 427.5,43.5C 425.5,43.5 423.5,43.5 421.5,43.5 Z"/></g>
<g><path style="opacity:1" fill="#b48d04" d="M 413.5,64.5 C 413.5,69.5 413.5,74.5 413.5,79.5C 411.167,79.5 408.833,79.5 406.5,79.5C 406.5,74.5 406.5,69.5 406.5,64.5C 408.833,64.5 411.167,64.5 413.5,64.5 Z"/></g>
<g><path style="opacity:0.149" fill="#c0bec1" d="M -0.5,65.5 C -0.5,65.1667 -0.5,64.8333 -0.5,64.5C 1.83333,64.5 4.16667,64.5 6.5,64.5C 6.5,69.5 6.5,74.5 6.5,79.5C 5.51388,75.03 5.18054,70.3633 5.5,65.5C 3.5,65.5 1.5,65.5 -0.5,65.5 Z"/></g>
<g><path style="opacity:1" fill="#0d0b0a" d="M 421.5,65.5 C 421.5,70.1667 421.5,74.8333 421.5,79.5C 419.167,79.5 416.833,79.5 414.5,79.5C 414.5,74.8333 414.5,70.1667 414.5,65.5C 416.833,65.5 419.167,65.5 421.5,65.5 Z"/></g>
<g><path style="opacity:1" fill="#060505" d="M 6.5,64.5 C 8.83333,64.5 11.1667,64.5 13.5,64.5C 13.5,64.8333 13.5,65.1667 13.5,65.5C 13.5,70.1667 13.5,74.8333 13.5,79.5C 11.1667,79.5 8.83333,79.5 6.5,79.5C 6.5,74.5 6.5,69.5 6.5,64.5 Z"/></g>
<g><path style="opacity:0.069" fill="#e6e0cf" d="M 13.5,65.5 C 13.8333,65.5 14.1667,65.5 14.5,65.5C 14.5,69.8333 14.5,74.1667 14.5,78.5C 16.1667,78.5 17.8333,78.5 19.5,78.5C 19.5,78.8333 19.5,79.1667 19.5,79.5C 17.5,79.5 15.5,79.5 13.5,79.5C 13.5,74.8333 13.5,70.1667 13.5,65.5 Z"/></g>
<g><path style="opacity:0.998" fill="#050403" d="M 13.5,79.5 C 15.5,79.5 17.5,79.5 19.5,79.5C 19.8333,79.5 20.1667,79.5 20.5,79.5C 20.5,81.8333 20.5,84.1667 20.5,86.5C 18.1667,86.5 15.8333,86.5 13.5,86.5C 13.5,84.1667 13.5,81.8333 13.5,79.5 Z"/></g>
<g><path style="opacity:1" fill="#ad8a0a" d="M 406.5,79.5 C 406.5,81.8333 406.5,84.1667 406.5,86.5C 401.833,86.5 397.167,86.5 392.5,86.5C 392.5,86.1667 392.5,85.8333 392.5,85.5C 392.5,83.5 392.5,81.5 392.5,79.5C 397.167,79.5 401.833,79.5 406.5,79.5 Z"/></g>
<g><path style="opacity:0.365" fill="#b8b4a8" d="M 20.5,79.5 C 20.8333,79.5 21.1667,79.5 21.5,79.5C 21.5,81.5 21.5,83.5 21.5,85.5C 25.8333,85.5 30.1667,85.5 34.5,85.5C 34.5,85.8333 34.5,86.1667 34.5,86.5C 29.8333,86.5 25.1667,86.5 20.5,86.5C 20.5,84.1667 20.5,81.8333 20.5,79.5 Z"/></g>
<g><path style="opacity:1" fill="#e5b80e" d="M 34.5,79.5 C 36.2798,80.9899 36.9465,82.9899 36.5,85.5C 155.167,85.5 273.833,85.5 392.5,85.5C 392.5,85.8333 392.5,86.1667 392.5,86.5C 392.167,86.5 391.833,86.5 391.5,86.5C 276.5,86.5 161.5,86.5 46.5,86.5C 42.8333,86.5 39.1667,86.5 35.5,86.5C 35.1667,86.5 34.8333,86.5 34.5,86.5C 34.5,86.1667 34.5,85.8333 34.5,85.5C 34.5,83.5 34.5,81.5 34.5,79.5 Z"/></g>
<g><path style="opacity:1" fill="#b68b00" d="M 46.5,86.5 C 161.5,86.5 276.5,86.5 391.5,86.5C 391.5,86.8333 391.5,87.1667 391.5,87.5C 389.5,87.5 387.5,87.5 385.5,87.5C 385.101,90.9708 383.601,91.3042 381,88.5C 270.333,88.5 159.667,88.5 49,88.5C 48.1667,89.5 47.3333,90.5 46.5,91.5C 46.542,89.8123 46.542,88.1457 46.5,86.5 Z"/></g>
<g><path style="opacity:1" fill="#b18b00" d="M 35.5,86.5 C 39.1667,86.5 42.8333,86.5 46.5,86.5C 46.542,88.1457 46.542,89.8123 46.5,91.5C 47.3333,90.5 48.1667,89.5 49,88.5C 159.667,88.5 270.333,88.5 381,88.5C 383.601,91.3042 385.101,90.9708 385.5,87.5C 387.5,87.5 389.5,87.5 391.5,87.5C 391.5,89.1667 391.5,90.8333 391.5,92.5C 273.167,92.5 154.833,92.5 36.5,92.5C 36.7678,90.901 36.4345,89.5676 35.5,88.5C 35.5,87.8333 35.5,87.1667 35.5,86.5 Z"/></g>
<g><path style="opacity:1" fill="#161312" d="M 406.5,79.5 C 408.833,79.5 411.167,79.5 413.5,79.5C 413.833,79.5 414.167,79.5 414.5,79.5C 414.5,81.8333 414.5,84.1667 414.5,86.5C 412.167,86.5 409.833,86.5 407.5,86.5C 407.5,88.8333 407.5,91.1667 407.5,93.5C 402.833,93.5 398.167,93.5 393.5,93.5C 393.802,96.0593 393.468,98.3926 392.5,100.5C 392.5,98.1667 392.5,95.8333 392.5,93.5C 392.5,91.1667 392.5,88.8333 392.5,86.5C 397.167,86.5 401.833,86.5 406.5,86.5C 406.5,84.1667 406.5,81.8333 406.5,79.5 Z"/></g>
<g><path style="opacity:1" fill="#a68a21" d="M 391.5,86.5 C 391.833,86.5 392.167,86.5 392.5,86.5C 392.5,88.8333 392.5,91.1667 392.5,93.5C 273.5,93.5 154.5,93.5 35.5,93.5C 35.5,91.8333 35.5,90.1667 35.5,88.5C 36.4345,89.5676 36.7678,90.901 36.5,92.5C 154.833,92.5 273.167,92.5 391.5,92.5C 391.5,90.8333 391.5,89.1667 391.5,87.5C 391.5,87.1667 391.5,86.8333 391.5,86.5 Z"/></g>
<g><path style="opacity:1" fill="#010100" d="M 20.5,86.5 C 25.1667,86.5 29.8333,86.5 34.5,86.5C 34.8333,86.5 35.1667,86.5 35.5,86.5C 35.5,87.1667 35.5,87.8333 35.5,88.5C 35.5,90.1667 35.5,91.8333 35.5,93.5C 154.5,93.5 273.5,93.5 392.5,93.5C 392.5,95.8333 392.5,98.1667 392.5,100.5C 273.167,100.5 153.833,100.5 34.5,100.5C 34.5,98.1667 34.5,95.8333 34.5,93.5C 29.8333,93.5 25.1667,93.5 20.5,93.5C 20.5,91.1667 20.5,88.8333 20.5,86.5 Z"/></g>
</svg>
